<?xml version="1.0" encoding="UTF-8" standalone="no"?>
<!DOCTYPE svg PUBLIC "-//W3C//DTD SVG 1.1//EN" "http://www.w3.org/Graphics/SVG/1.1/DTD/svg11.dtd">
<svg width="100%" height="100%" viewBox="0 0 4725 4725" version="1.1" xmlns="http://www.w3.org/2000/svg" xmlns:xlink="http://www.w3.org/1999/xlink" xml:space="preserve" xmlns:serif="http://www.serif.com/" style="fill-rule:evenodd;clip-rule:evenodd;stroke-linejoin:round;stroke-miterlimit:2;">
    <g>
        <path d="M1084.65,2253.8C1125.34,2199.56 1237.36,2054.94 1238.63,2053.43C1285.15,2054.54 1285.16,2053.31 1329.84,2052.88C1285.69,2110.42 1122.72,2317.25 1096.57,2360.11C1103.94,2359.3 1182.24,2357.48 1183.94,2359.82C1195.15,2375.31 1283.81,2517.09 1288.46,2525.53C1247.77,2525.3 1247.03,2525.44 1204.21,2525.43C1153.79,2445 1150.8,2440.81 1096.57,2360.11C1004.01,2480.1 961.609,2534.31 911.008,2601.82C910.622,2602.33 920.014,2599.89 818.169,2601.87C956.713,2420.81 946.667,2435.85 1084.65,2253.8C1004.88,2248.51 996.968,2249.4 996.767,2249.08C970.727,2207.6 913.33,2119.79 882.901,2073.73C923.685,2073.68 942.123,2074.03 963.418,2073.83C964.036,2073.83 1080.95,2246.95 1084.65,2253.8Z" style="fill:rgb(246,8,247);"/>
        <path d="M917.882,2605.98L917.719,2606.36L915.463,2608.58L913.526,2609.5L911.087,2609.89L909.27,2609.63C909.301,2609.65 909.317,2609.65 909.317,2609.65C909.317,2609.65 890.726,2608.47 818.324,2609.87C815.253,2609.93 812.418,2608.23 811.031,2605.49C809.644,2602.75 809.948,2599.45 811.815,2597.01C947.269,2419.99 940.676,2430.43 1069.3,2260.82C1010.42,2257.06 998.603,2257.26 996.613,2257.13L993.137,2256.22L991.367,2254.98L989.992,2253.33C963.975,2211.89 906.627,2124.16 876.226,2078.14C874.604,2075.68 874.461,2072.53 875.854,2069.94C877.246,2067.35 879.95,2065.73 882.893,2065.73C923.644,2065.68 942.067,2066.03 963.345,2065.83L966.393,2066.41L968.261,2067.46L969.557,2068.69C969.856,2069.04 971.233,2070.94 973.444,2074.14C990.171,2098.34 1062.72,2205.82 1085.15,2239.84C1130.36,2180.01 1231.32,2049.7 1232.53,2048.27C1234.09,2046.42 1236.4,2045.38 1238.82,2045.44C1285.2,2046.54 1285.21,2045.31 1329.76,2044.88C1332.82,2044.85 1335.63,2046.57 1336.99,2049.31C1338.36,2052.04 1338.05,2055.32 1336.18,2057.75C1295.57,2110.69 1154.12,2290.26 1111.87,2351.45C1134.07,2350.78 1171.67,2350.23 1182.08,2351.28C1183.43,2351.42 1184.47,2351.59 1185.18,2351.77L1187.11,2352.43L1188.81,2353.47L1190.42,2355.13C1201.69,2370.7 1290.79,2513.19 1295.46,2521.67C1296.83,2524.16 1296.78,2527.18 1295.33,2529.62C1293.88,2532.06 1291.25,2533.55 1288.41,2533.53C1247.75,2533.3 1247.01,2533.44 1204.21,2533.43C1201.45,2533.43 1198.89,2532.01 1197.43,2529.68C1149.07,2452.53 1144.4,2445.62 1096.12,2373.79C1008.55,2487.28 967.005,2540.47 917.882,2605.98ZM906.848,2608.66L904.632,2606.61C904.777,2606.8 904.934,2606.99 905.103,2607.18C905.477,2607.61 906.013,2608.14 906.848,2608.66ZM904.247,2606.07L903.488,2604.57C903.671,2605.06 903.919,2605.56 904.247,2606.07ZM903.418,2604.37L903.054,2602.41C903.08,2603.04 903.188,2603.7 903.418,2604.37ZM903.06,2601.67L903.222,2600.41C903.143,2600.81 903.084,2601.23 903.06,2601.67ZM907.135,2593.65C956.609,2527.73 999.104,2473.36 1089.97,2355.57C1115.14,2314.64 1258.72,2131.77 1313.4,2061.1C1285.18,2061.59 1278.94,2062.33 1242.45,2061.53C1226.23,2082.38 1128.45,2208.74 1091.06,2258.6C1091.05,2258.61 1091.04,2258.62 1091.03,2258.63C956.463,2436.16 962.67,2426.28 834.592,2593.58C879.107,2592.86 898.633,2593.22 907.135,2593.65ZM1069.31,2244.78C1045.19,2208.37 976.444,2106.62 960.282,2083.24C959.954,2082.76 959.633,2082.3 959.33,2081.87C942.402,2081.97 926.255,2081.76 897.762,2081.73C928.464,2128.34 976.602,2202.1 1001.27,2241.22C1008.3,2241.4 1026.94,2242.09 1069.31,2244.78ZM1111.13,2367.43C1157.16,2435.93 1162.9,2444.49 1208.63,2517.43C1241.86,2517.43 1247.99,2517.34 1274.23,2517.46C1253.11,2483.15 1193.25,2387.68 1179.26,2367.09C1167.45,2366.21 1131.4,2366.79 1111.13,2367.43ZM910.918,2593.89C911.52,2593.94 911.989,2593.99 912.354,2594.04C911.913,2593.94 911.473,2593.89 911.042,2593.89C911.001,2593.89 910.959,2593.89 910.918,2593.89ZM918.103,2598.31L918.846,2600.28C918.81,2600.12 918.772,2599.96 918.731,2599.81C918.596,2599.3 918.381,2598.79 918.103,2598.31ZM918.986,2601.1L918.89,2603.5C919.075,2602.64 919.077,2601.83 918.986,2601.1ZM918.791,2603.9L917.97,2605.78C918.359,2605.13 918.622,2604.5 918.791,2603.9Z" style="fill:rgb(246,8,247);"/>
        <path d="M536.145,2070.66C535.241,2105.9 535.501,2520.69 536.416,2528.08C688.665,2529.22 684.564,2528.92 826.181,2529C826.313,2522.5 829.27,2465.32 827.61,2465.33C734.974,2465.9 719.529,2465.52 610.348,2464.79C610.077,2459.43 610.146,2419.53 611.093,2372.49C611.168,2368.74 611.887,2317.83 611.688,2314.15C675.822,2314.73 752.189,2315.77 752.189,2315.77C751.803,2254.72 751.918,2253.57 751.695,2253.58C727.238,2254.39 645.813,2252.37 611.499,2252.31C611.02,2200.64 611.132,2187.07 611.087,2135.29C647.788,2135.06 795.15,2135.88 825.752,2136.05C826.159,2136.05 826.741,2119.98 826.456,2098.74C826.189,2078.78 826.409,2072.45 826.189,2072.44C732.335,2070.78 555.542,2068.72 536.145,2070.66Z" style="fill:white;"/>
        <path d="M535.351,2062.7C554.81,2060.76 732.173,2062.78 826.331,2064.44L829.759,2065.28L831.206,2066.21L832.519,2067.54L833.633,2069.48L834.199,2071.81C834.33,2073.05 834.208,2080.17 834.456,2098.63C834.721,2118.38 834.203,2133.8 833.802,2136.68L833.034,2139.4L831.896,2141.18L830.667,2142.37L828.12,2143.69L825.709,2144.05C796.998,2143.89 665.47,2143.16 619.093,2143.26C619.12,2186.06 619.053,2201.61 619.427,2244.35C656.943,2244.64 728.745,2246.34 751.43,2245.59L754.641,2246.14L757.085,2247.66L758.332,2249.08L759.199,2250.73L759.787,2253.84C759.885,2256.09 759.879,2266.64 760.189,2315.72C760.202,2317.87 759.351,2319.93 757.825,2321.45C756.3,2322.96 754.229,2323.8 752.08,2323.77C752.08,2323.77 681.967,2322.82 619.692,2322.22C619.593,2337.95 619.15,2369.7 619.091,2372.65C618.346,2409.67 618.139,2442.24 618.22,2456.84C720.329,2457.53 737.227,2457.89 827.561,2457.33L829.747,2457.62L831.589,2458.38L833.122,2459.5L834.375,2460.99L835.539,2463.62L835.952,2466.31C836.691,2475.74 834.299,2523.24 834.18,2529.16C834.092,2533.52 830.534,2537 826.177,2537C684.532,2536.92 688.635,2537.22 536.356,2536.08C532.341,2536.05 528.97,2533.05 528.477,2529.06C527.559,2521.65 527.242,2105.79 528.148,2070.45C528.251,2066.42 531.338,2063.1 535.351,2062.7ZM820.134,2473.38C734.052,2473.88 716.502,2473.5 610.295,2472.79C606.054,2472.76 602.572,2469.43 602.358,2465.2C602.085,2459.8 602.142,2419.66 603.094,2372.33C603.169,2368.62 603.897,2318.22 603.699,2314.58C603.58,2312.37 604.378,2310.22 605.905,2308.62C607.432,2307.02 609.551,2306.13 611.761,2306.15C663.319,2306.62 722.78,2307.38 744.138,2307.66L743.848,2261.73C712.873,2262.03 642.711,2260.37 611.485,2260.31C607.101,2260.31 603.54,2256.77 603.499,2252.39C603.02,2200.68 603.133,2187.11 603.087,2135.3C603.083,2130.9 606.635,2127.32 611.036,2127.29C645.306,2127.08 776.012,2127.78 818.181,2128.01C818.379,2121.35 818.612,2110.36 818.457,2098.85C818.346,2090.59 818.302,2084.47 818.286,2080.31C730.57,2078.81 581.615,2077.05 544.023,2078.24C543.316,2139.28 543.458,2467.71 544.178,2520.14C685.886,2521.19 687.034,2520.93 818.492,2521C819.036,2508.5 820.1,2485.25 820.134,2473.38Z" style="fill:white;"/>
        <path d="M1457.33,2072.17C1458.03,2073.65 1369.66,2500.02 1364.62,2527.61C1363.55,2533.46 1417.3,2528.25 1434.82,2527.34C1436.31,2527.26 1458.24,2399.61 1488.94,2257.2C1509.56,2326.81 1544.45,2426.07 1579.79,2525.6C1580.67,2528.08 1573.42,2530.09 1613.15,2527.82C1639.25,2455.38 1687.12,2303.07 1706.08,2257.66C1727.1,2361.74 1736.61,2416.14 1758.3,2528.93C1758.45,2529.74 1792.4,2528.49 1827.41,2528.57C1828.75,2528.58 1763.04,2209.08 1735.73,2072.69C1705.01,2072.08 1696.08,2072.26 1695.88,2073.04C1670.51,2173.61 1646.43,2232.46 1596.87,2397.68C1566.89,2308.21 1506.59,2094.2 1496.72,2073.44C1495.48,2070.82 1487.91,2071.65 1457.33,2072.17Z" style="fill:white;"/>
        <path d="M1449.35,2071.59C1449.44,2070.32 1449.84,2069.06 1450.54,2067.94C1451.97,2065.64 1454.48,2064.21 1457.2,2064.17C1479.32,2063.79 1489.79,2063.34 1494.52,2063.98C1495.82,2064.16 1496.87,2064.41 1497.72,2064.7L1500.16,2065.82L1502.28,2067.55L1503.95,2070C1513.04,2089.13 1564.89,2271.85 1596.57,2370.99C1641.17,2224.24 1664.07,2166.43 1688.13,2071.08L1688.84,2069.25L1690.22,2067.36L1691.67,2066.19L1693.8,2065.2C1695.79,2064.57 1706.43,2064.11 1735.88,2064.69C1739.64,2064.77 1742.83,2067.44 1743.57,2071.12C1768.16,2193.89 1823.85,2465.02 1833.77,2518.02C1834.92,2524.18 1835.43,2527.83 1835.43,2528.49L1834.91,2531.37L1833.54,2533.72L1831.99,2535.13L1830.46,2535.97L1827.39,2536.57C1795.65,2536.5 1764.77,2537.49 1758.8,2537.1L1755.78,2536.56L1752.87,2534.82L1751.25,2532.72L1750.44,2530.44C1730.72,2427.88 1721.07,2373.6 1703.67,2286.32C1681.25,2348.12 1643,2468.58 1620.68,2530.53C1619.59,2533.55 1616.81,2535.62 1613.61,2535.8C1590.57,2537.12 1582.24,2536.84 1579.31,2536.12L1575.94,2534.73L1573.35,2532.24L1572.12,2529.62L1571.8,2527.77L1571.83,2527.09C1541.33,2441.19 1511.21,2355.58 1490.33,2289.09C1465.96,2404.91 1448.2,2505.06 1443.68,2525.34C1442.77,2529.39 1441.67,2531.55 1441.35,2531.98L1440.21,2533.26L1438.54,2534.42L1435.24,2535.32C1420.93,2536.07 1382.94,2539.53 1368.88,2537.86C1364.19,2537.3 1361.11,2535.78 1359.7,2534.53L1358.15,2532.79L1357.27,2531.14L1356.65,2528.66L1356.75,2526.17C1361.29,2501.33 1433.34,2153.41 1447.19,2082.99C1448.38,2076.93 1449.22,2072.34 1449.35,2071.59ZM1571.87,2526.11L1571.89,2525.67C1571.88,2525.81 1571.87,2525.96 1571.87,2526.11ZM1373.83,2522.09C1376.04,2522.24 1378.72,2522.36 1381.27,2522.34C1395.63,2522.22 1415.99,2520.56 1428.53,2519.71C1434.17,2493.11 1454.29,2379.95 1481.12,2255.51C1481.89,2251.94 1484.98,2249.35 1488.63,2249.21C1492.29,2249.07 1495.57,2251.42 1496.61,2254.93C1517.04,2323.9 1551.51,2422.02 1586.52,2520.63C1590.39,2520.64 1597.53,2520.58 1607.42,2520.11C1633.9,2445.78 1680.13,2299.03 1698.69,2254.58C1700.05,2251.34 1703.36,2249.36 1706.86,2249.7C1710.36,2250.05 1713.22,2252.63 1713.92,2256.08C1734.55,2358.2 1744.09,2412.51 1764.93,2521.05C1774.57,2520.91 1796.48,2520.61 1817.97,2520.57C1808.03,2467.58 1754.26,2205.72 1729.15,2080.58C1716.33,2080.39 1707.14,2080.45 1702.24,2080.51C1677.35,2177.87 1653.24,2237.63 1604.53,2399.98C1603.53,2403.32 1600.48,2405.62 1596.99,2405.68C1593.51,2405.73 1590.39,2403.53 1589.28,2400.22C1560.43,2314.13 1503.5,2112.37 1490.71,2079.74C1489.74,2079.68 1488.51,2079.63 1487.27,2079.62C1482.33,2079.6 1474.95,2079.83 1464.06,2080.04C1463.73,2081.76 1463.34,2083.78 1462.89,2086.08C1449.81,2152.58 1384.79,2466.7 1373.83,2522.09ZM1587.79,2526.32L1587.75,2527.79C1587.82,2527.28 1587.83,2526.79 1587.79,2526.32Z" style="fill:white;"/>
        <path d="M2042.79,2065.62L2042.69,2065.5C2051.75,2064.59 2071.46,2065.52 2075.47,2066.13L2077.93,2066.78L2080.2,2068.19L2081.53,2069.68L2082.43,2071.41C2149.2,2249.49 2187.41,2342.08 2191.53,2353.22C2227.34,2450.22 2256.42,2513.3 2258.85,2525.04L2259.13,2528.82L2258.22,2532.07L2257.16,2533.66L2255.45,2535.21L2253.26,2536.26L2251.09,2536.63C2227.99,2537.45 2197.22,2537.4 2174.9,2534.87L2171.96,2533.95L2169.91,2532.4L2168.51,2530.55C2168.17,2529.96 2167.71,2529.04 2167.22,2527.8C2163.16,2517.7 2151.44,2473.81 2145.95,2459.35C2129.74,2459 2072.45,2459.07 1974.29,2458.2C1971.13,2466.88 1962.78,2490.49 1950.25,2530.48C1949.22,2533.77 1946.2,2536.03 1942.75,2536.09C1892.29,2536.98 1917.36,2535.69 1865.99,2535.35C1863.33,2535.34 1860.86,2534 1859.38,2531.79C1857.91,2529.59 1857.63,2526.79 1858.63,2524.33C1860.76,2519.1 1952.85,2292.74 1990.69,2190.6C2009.82,2138.96 2031.3,2082.83 2035.35,2072.32C2035.81,2071.14 2036.07,2070.48 2036.11,2070.38L2037.36,2068.32L2039.31,2066.64L2042.01,2065.6L2042.79,2065.62ZM2045.28,2081.34C2044.94,2081.36 2044.61,2081.39 2044.3,2081.42C2044,2081.45 2043.71,2081.46 2043.42,2081.46C2043.7,2081.46 2044.39,2081.5 2045.28,2081.34ZM2043.4,2081.46C2041.51,2081.44 2039.69,2080.75 2038.26,2079.51C2039.74,2080.79 2041.45,2081.44 2043.4,2081.46ZM2181.17,2519.43C2198.93,2521.11 2221.08,2521.34 2240.09,2520.94C2231.37,2500.04 2205.28,2436.68 2176.52,2358.76C2172.44,2347.73 2134.87,2256.69 2069.21,2081.73C2064.24,2081.46 2055.48,2081.07 2049.09,2081.18C2043.04,2096.94 2023.36,2148.47 2005.69,2196.15C1972.36,2286.13 1897,2472.37 1877.88,2519.46C1911.83,2519.88 1898.05,2520.81 1936.71,2520.19C1952.28,2470.72 1959.61,2450.73 1961.44,2447.13L1962.43,2445.49L1963.92,2443.94L1966.14,2442.67L1969.06,2442.15C2077.58,2443.14 2137.74,2442.99 2149.31,2443.43L2153.4,2443.94L2155.97,2445.28L2158.32,2447.96C2159.17,2449.34 2160.47,2452.31 2161.91,2456.45C2167.3,2471.95 2176.81,2506.98 2181.17,2519.43Z" style="fill:white;"/>
        <path d="M1879.87,2496.97C1880.36,2494.09 1881.2,2490.68 1882.49,2486.86C1887.08,2473.23 1896.7,2452.67 1909.52,2433.7C1909.72,2433.19 1909.92,2432.67 1910.12,2432.15C1907.96,2429.88 1907.26,2426.44 1908.6,2423.41C1910.32,2419.52 1914.77,2405.73 1928.9,2377.47C1932.47,2370.32 1935.28,2365.1 1937.56,2361.12C1941.06,2352.77 1944.1,2345.81 1947.58,2338.32C1962.5,2265.47 1989.03,2230.23 1989.32,2229.65C1989.96,2228.38 1990.88,2227.36 1991.98,2226.62C1994.97,2208.78 1996.58,2199.96 2004.4,2174.65C2011.78,2150.76 2015.51,2143.81 2022.84,2131.77C2024.48,2128.57 2026.59,2124.78 2029.42,2119.84C2030.84,2117.36 2032.12,2115.2 2033.25,2113.35C2033.15,2111.8 2033.09,2110.26 2033.05,2108.73C2032.76,2096.3 2034.74,2084.66 2039.2,2077.97L2042.05,2074.85L2044,2073.59L2046.27,2072.72L2048.69,2072.36L2051.07,2072.51L2055.16,2073.98C2055.25,2074.03 2055.34,2074.09 2055.43,2074.14L2058.42,2074.1L2060.87,2074.64L2063.06,2075.62L2065.71,2077.6C2066.29,2078.15 2066.84,2078.77 2067.37,2079.46L2070.68,2079.66L2073.97,2081.29C2075.63,2082.55 2078.35,2086.27 2081.1,2092.4C2088.84,2109.63 2102.23,2150.54 2117.41,2185.62C2118.79,2188.81 2117.93,2192.42 2115.51,2194.66C2118.71,2200.83 2122.79,2209.48 2126.78,2218.38C2127.59,2219.15 2128.62,2220.36 2129.73,2222.2C2132.97,2227.56 2138.91,2241.85 2147.43,2273.02C2147.51,2273.2 2147.58,2273.39 2147.65,2273.58C2147.87,2274.22 2148.09,2274.85 2148.29,2275.47L2150.68,2277.36C2163.79,2290.47 2166.43,2297.16 2169.42,2311.94C2170.77,2318.6 2172.2,2327.14 2175,2339.31C2175.71,2340.64 2176.42,2341.97 2177.13,2343.28C2180.38,2349.18 2183.99,2355.57 2187.99,2362.5C2188.01,2362.54 2188.03,2362.57 2188.05,2362.61C2190.24,2366.41 2188.96,2371.28 2185.17,2373.51C2184.99,2373.61 2184.8,2373.71 2184.61,2373.8C2184.49,2374.23 2184.33,2374.64 2184.13,2375.04L2187.61,2384.64L2189.88,2384.17L2193.2,2384.74L2196.07,2386.63L2197.31,2388.12C2197.7,2388.7 2198.2,2389.55 2198.74,2390.66C2203.5,2400.5 2216.83,2442.98 2217.63,2445.53C2218.22,2447.42 2218.07,2449.39 2217.33,2451.1C2219.24,2455.37 2220.62,2458.57 2220.98,2460.13L2221.25,2462.67C2221.99,2463.38 2222.6,2464.25 2223.03,2465.24L2235.03,2492.89C2235.9,2492.9 2236.85,2492.97 2237.8,2493.14L2240.93,2494.08L2243.77,2495.8L2246.31,2498.61L2247.91,2502.22L2248.39,2506.04C2248.39,2510.59 2247.05,2514.33 2245.02,2517.19C2246.74,2520.98 2245.25,2525.5 2241.54,2527.51C2237.69,2529.6 2232.88,2528.21 2230.74,2524.39C2230.7,2524.31 2230.66,2524.23 2230.61,2524.15C2229.73,2524.08 2228.84,2523.93 2227.96,2523.71C2226.6,2525.2 2225.25,2526.29 2223.97,2527.06L2221.34,2528.3L2218.36,2528.95L2215.26,2528.82L2212.41,2527.94L2210.03,2526.57L2208.14,2524.92C2208.08,2524.86 2208.02,2524.8 2207.97,2524.74C2207.84,2524.8 2207.71,2524.85 2207.58,2524.9L2205.39,2525.57L2202.99,2525.84L2199.89,2525.48L2197.06,2524.34L2195.97,2523.55L2193.86,2523.06C2192.97,2522.75 2192.1,2522.31 2191.25,2521.75L2189.38,2522.04L2185.99,2521.34L2183.99,2520.16L2183.97,2520.17L2182,2520.85L2179.81,2521.12L2177.62,2520.93L2175.62,2520.33L2172.53,2518.43C2169.56,2515.9 2166.2,2509.4 2164.31,2499.95C2163.2,2494.36 2162.4,2487.59 2162.05,2480.2C2157.77,2477.83 2155.29,2473.52 2154.39,2466.1C2154.12,2463.77 2154.02,2460.97 2154,2457.62L2152.72,2457.41L2150.39,2456.55L2148.32,2455.28L2145.77,2452.76C2145.59,2452.54 2145.42,2452.3 2145.25,2452.06L2143.29,2451.58L2139.98,2449.55L2138.5,2447.83L2137.46,2445.77L2137.35,2445.17C2135.92,2444.92 2134.51,2444.62 2133.12,2444.26C2132.82,2444.18 2132.52,2444.1 2132.23,2444.02C2103.74,2451.51 2095.86,2449.41 2075.64,2447.78C2064.22,2448.96 2054.96,2449.61 2051.71,2449.1L2048.69,2448.21L2046.52,2446.78L2045.19,2445.25L2044.4,2443.8L2044.38,2443.7C2041.37,2444.08 2038.36,2444.35 2035.38,2444.5C2027.67,2445.89 2020.6,2446.99 2014.24,2447.6C2002.76,2448.7 1993.36,2448.15 1986.41,2445.51C1983.69,2444.49 1981.94,2443.35 1980.87,2442.42C1979.14,2442.97 1977.51,2443.38 1975.98,2443.65C1974.67,2444.71 1973.36,2445.69 1972.07,2446.56C1971.71,2446.8 1971.36,2447.04 1971.01,2447.26C1967.29,2453.52 1963.05,2459.23 1958.88,2462.98C1958.77,2463.08 1958.65,2463.19 1958.53,2463.29C1959.04,2465.61 1959.32,2468.34 1959.24,2471.49C1959.01,2480.5 1955.91,2494 1946.58,2512.01C1943.1,2518.72 1940.16,2522.92 1937.9,2525.23C1936.98,2526.18 1936.11,2526.9 1935.31,2527.45L1933.03,2528.7L1929.61,2529.49L1927.6,2529.4L1925.59,2528.87L1923.49,2527.76L1922.78,2527.14L1922.16,2527.06L1920.03,2526.04L1918.41,2524.69L1917.94,2524.08C1912.36,2528.97 1907.37,2529.96 1903.87,2529.42L1899.78,2528.03L1897.25,2526.05C1894.41,2529.07 1891.89,2530.65 1889.99,2531.35L1886.95,2532.03L1883.34,2531.69L1880.3,2530.24L1878.08,2528.1L1876.54,2525.41L1875.59,2521.69C1875.53,2521.14 1875.49,2520.55 1875.48,2519.91L1875.47,2519.9C1875.09,2518.65 1874.84,2517.18 1874.79,2515.51C1874.64,2510.66 1876.46,2503.41 1879.87,2496.97ZM1998.73,2398.88C2000.62,2398.88 2002.65,2398.88 2004.82,2398.88C2040.47,2398.88 2059.77,2399.42 2070.21,2400.6C2076.59,2401.02 2082.38,2402.02 2087.12,2403.12C2101.11,2398.19 2114.57,2393.29 2126.64,2389.76C2124.42,2385.44 2122.13,2381.16 2120.43,2376.63C2117.86,2369.76 2116.33,2362.54 2114.79,2355.38C2113.12,2347.65 2112.37,2342.58 2112.24,2339.64C2112.24,2339.6 2112.24,2339.57 2112.24,2339.53C2107.06,2326.88 2102.76,2312.12 2101.86,2298.66C2096.12,2287.27 2091.1,2274.14 2088.52,2260.16C2088.24,2258.61 2087.99,2257.19 2087.79,2255.87C2085.24,2255.29 2083.02,2253.47 2082.04,2250.83C2082.04,2250.82 2082.03,2250.79 2082.03,2250.78C2081.54,2249.47 2075.62,2237.58 2069.23,2218.57C2064.32,2206.7 2061.84,2199.77 2059.96,2184.12C2059.87,2183.68 2059.77,2183.23 2059.66,2182.76C2058.8,2183.68 2057.93,2184.57 2056.98,2185.47C2052.34,2191.94 2048.65,2197.81 2045.78,2202.73C2045.95,2203.8 2045.91,2204.92 2045.62,2206.03C2030.31,2264.18 2027.04,2282.14 2024.94,2289.75C2023.67,2294.35 2022.64,2296.23 2020.77,2298.77L2019.04,2300.65L2017.26,2301.87L2015.17,2302.67L2012.53,2302.93L2010.3,2302.45C2005.81,2316.62 2003.04,2325.73 2001.2,2331.96C2000.13,2339.11 1998.99,2347.87 1997.56,2359.24C1997.21,2362.1 1995.38,2364.43 1992.92,2365.54C1992.83,2366.59 1992.75,2367.66 1992.66,2368.76C1992.43,2371.67 1990.66,2374.11 1988.2,2375.32C1987.98,2378.24 1987.76,2380.96 1987.55,2383.49C1987.82,2389.73 1987.87,2394.01 1987.79,2396.66C1987.78,2396.92 1987.77,2397.18 1987.75,2397.42C1991.2,2397.39 1994.63,2397.87 1997.92,2398.68C1998.19,2398.74 1998.46,2398.81 1998.73,2398.88Z" style="fill:white;"/>
        <path d="M2059.68,2174.33L2061.49,2174.54L2063.37,2175.23L2065.19,2176.52L2066.42,2178C2066.7,2178.42 2067.75,2180.65 2069.18,2184.52C2079.82,2213.45 2129.24,2359.8 2135.72,2393.85L2135.87,2395.69L2135.58,2397.61L2134.03,2400.66L2132.33,2402.29L2130.34,2403.39C2129.32,2403.82 2127.64,2404.26 2125.3,2404.5C2119.8,2405.06 2108.16,2404.86 2093,2404.77C2063.17,2404.59 2019.72,2404.02 1986.33,2403.39L1983.99,2402.99L1981.83,2401.91L1980.07,2400.21L1978.89,2398.05L1978.44,2396.12L1978.44,2394.1C1978.55,2393.07 1979.05,2390.75 1980.04,2387.36C1989.81,2353.59 2049.86,2184.69 2052.38,2179.06C2053.67,2176.18 2056.53,2174.33 2059.68,2174.33ZM1996.67,2387.57C2028.31,2388.13 2066.24,2388.61 2093.1,2388.77C2102.67,2388.83 2112.12,2388.7 2118.15,2388.58C2108.62,2350.09 2074.86,2249.04 2059.67,2205.53C2043.73,2249.84 2006.77,2354.74 1996.67,2387.57Z" style="fill:white;"/>
        <path d="M2221.97,2071.14C2234.83,2071.01 2225.39,2071.03 2237.08,2071.15C2260.68,2138.65 2284.74,2195.57 2303.43,2243.73C2353.08,2371.76 2381.81,2443.99 2415.91,2528.28C2406.15,2528.53 2411.69,2528.34 2402.04,2528.82C2389.64,2498.23 2339.25,2361.13 2292.58,2243.03C2261.2,2163.63 2232.03,2092.49 2221.97,2071.14Z" style="fill:white;"/>
        <path d="M2221.89,2063.14C2234.89,2063.01 2225.35,2063.03 2237.17,2063.15C2240.54,2063.19 2243.52,2065.33 2244.63,2068.51C2268.19,2135.91 2292.23,2192.75 2310.88,2240.84C2360.51,2368.82 2389.24,2441.03 2423.32,2525.28C2424.3,2527.71 2424.03,2530.47 2422.6,2532.66C2421.16,2534.86 2418.74,2536.21 2416.11,2536.27C2406.49,2536.52 2411.95,2536.34 2402.44,2536.81C2399.04,2536.97 2395.91,2534.98 2394.63,2531.82C2382.22,2501.23 2331.83,2364.1 2285.14,2245.97C2253.84,2166.79 2224.77,2095.85 2214.74,2074.55C2213.58,2072.08 2213.75,2069.2 2215.2,2066.89C2216.64,2064.58 2219.17,2063.17 2221.89,2063.14Z" style="fill:white;"/>
        <path d="M2541.7,2239.7C2546.22,2240.46 2544.22,2240.08 2585.8,2239.4C2582,2215.97 2583.88,2194.56 2552.34,2176.39C2537.11,2167.62 2492.88,2161.19 2467.45,2180.83C2432.14,2208.1 2419.87,2258.69 2477.94,2297.68C2479.58,2298.78 2500.43,2309.45 2514.7,2315.77C2526.82,2321.15 2532.65,2329.48 2533.66,2330.48C2550,2346.83 2540.87,2384 2518.53,2384.12C2473.93,2384.34 2480.33,2350.95 2479.48,2340.08C2479.34,2338.31 2466.35,2340.51 2456.3,2340.91C2454.78,2340.97 2472.85,2382.94 2486.37,2414.42C2486.83,2415.47 2505.3,2416.39 2511.11,2416.12C2542.08,2414.65 2564.24,2407.42 2575.99,2391.75C2597.26,2363.4 2588.87,2317.81 2568.42,2302.53C2549.81,2288.62 2491.99,2260.78 2485.97,2244.66C2471.61,2206.12 2532.43,2167.99 2541.7,2239.7Z" style="fill:rgb(246,8,247);"/>
        <path d="M2533.77,2240.73C2532.15,2228.23 2528.96,2219.48 2524.64,2213.87C2521.38,2209.65 2517.55,2207.54 2513.59,2207.36C2508.49,2207.13 2503.46,2209.82 2499.52,2213.87C2493.05,2220.54 2489.49,2231.18 2493.47,2241.86C2494.93,2245.77 2500.59,2250.09 2507.6,2255.15C2527.87,2269.77 2560.16,2286.37 2573.21,2296.12C2582.65,2303.18 2590.12,2315.68 2593.8,2330.43C2599.14,2351.77 2596.61,2377.6 2582.39,2396.55C2569.49,2413.75 2545.48,2422.49 2511.49,2424.11C2505.72,2424.38 2488.65,2423.46 2484.93,2422.45L2482.82,2421.64L2481.07,2420.42L2479.02,2417.57C2466.68,2388.84 2450.65,2351.47 2448.69,2344.24L2448.22,2340.7L2448.9,2337.77L2450.34,2335.55L2452.14,2334.07L2454.06,2333.23L2455.98,2332.92C2463.33,2332.63 2472.22,2331.4 2476.68,2331.4C2477.78,2331.4 2478.72,2331.46 2479.46,2331.57L2482.07,2332.25L2484.09,2333.38L2485.71,2334.97L2486.88,2337.01L2487.45,2339.46C2487.71,2342.69 2487.31,2347.95 2487.83,2353.71C2488.23,2358.14 2489.18,2363.02 2492.19,2367.08C2496.36,2372.7 2504.31,2376.19 2518.49,2376.12C2524.31,2376.09 2528.44,2371.78 2531,2366.44C2535.51,2357 2535.53,2343.67 2528,2336.14C2527.12,2335.26 2522.1,2327.81 2511.46,2323.09C2496.71,2316.55 2475.17,2305.45 2473.49,2304.32C2441.5,2282.85 2429.43,2257.83 2429.68,2234.77C2429.93,2211.48 2442.91,2189.67 2462.56,2174.5C2476.67,2163.6 2495.93,2159.68 2513.84,2159.95C2531.62,2160.23 2547.95,2164.62 2556.33,2169.45C2590.89,2189.36 2589.53,2212.45 2593.69,2238.12C2594.07,2240.41 2593.42,2242.75 2591.93,2244.53C2590.44,2246.31 2588.25,2247.36 2585.93,2247.4C2542.98,2248.1 2545.06,2248.37 2540.39,2247.59C2536.91,2247.01 2534.22,2244.22 2533.77,2240.73ZM2478.91,2376.01C2483.2,2386.37 2487.85,2397.5 2492,2407.22C2497.04,2407.59 2507.25,2408.29 2510.73,2408.12C2538.68,2406.8 2558.98,2401.09 2569.59,2386.95C2580.89,2371.88 2582.53,2351.28 2578.28,2334.31C2575.58,2323.51 2570.55,2314.1 2563.63,2308.94C2550.63,2299.22 2518.44,2282.69 2498.24,2268.13C2487.9,2260.67 2480.63,2253.22 2478.48,2247.45C2472.12,2230.39 2477.7,2213.39 2488.04,2202.73C2495.31,2195.24 2504.89,2190.96 2514.3,2191.38C2527.93,2191.99 2543.04,2202.56 2548.61,2232.17C2552.36,2232.12 2559.62,2231.87 2576.66,2231.55C2574.51,2213.83 2572.73,2197.37 2548.35,2183.32C2541.5,2179.38 2528.1,2176.18 2513.6,2175.95C2499.23,2175.73 2483.66,2178.42 2472.34,2187.16C2456.68,2199.25 2445.87,2216.38 2445.68,2234.94C2445.48,2253.75 2456.31,2273.52 2482.4,2291.04C2483.98,2292.1 2504.16,2302.35 2517.94,2308.46C2531.54,2314.49 2538.18,2323.7 2539.31,2324.83C2551.4,2336.92 2552.68,2358.19 2545.43,2373.35C2540.14,2384.41 2530.63,2392.06 2518.57,2392.12C2497.06,2392.22 2485.66,2385.14 2479.34,2376.61C2479.19,2376.41 2479.05,2376.21 2478.91,2376.01ZM2472.73,2361.07C2472.34,2359.07 2472.07,2357.09 2471.89,2355.14C2471.66,2352.59 2471.61,2350.13 2471.6,2347.9C2470.33,2348.01 2468.93,2348.12 2467.47,2348.23C2468.89,2351.7 2470.69,2356.1 2472.73,2361.07Z" style="fill:rgb(246,8,247);"/>
        <g transform="matrix(1,0,0,1,1754.34,-0.505293)">
            <path d="M2541.7,2239.7C2546.22,2240.46 2544.22,2240.08 2585.8,2239.4C2582,2215.97 2583.88,2194.56 2552.34,2176.39C2537.11,2167.62 2492.88,2161.19 2467.45,2180.83C2432.14,2208.1 2419.87,2258.69 2477.94,2297.68C2479.58,2298.78 2500.43,2309.45 2514.7,2315.77C2526.82,2321.15 2532.65,2329.48 2533.66,2330.48C2550,2346.83 2540.87,2384 2518.53,2384.12C2473.93,2384.34 2480.87,2356.06 2480.02,2345.2C2479.88,2343.42 2449.17,2344.59 2439.12,2344.99C2437.59,2345.05 2430.42,2402.37 2486.37,2414.42C2487.49,2414.66 2505.3,2416.39 2511.11,2416.12C2542.08,2414.65 2564.24,2407.42 2575.99,2391.75C2597.26,2363.4 2588.87,2317.81 2568.42,2302.53C2549.81,2288.62 2491.99,2260.78 2485.97,2244.66C2471.61,2206.12 2532.43,2167.99 2541.7,2239.7Z" style="fill:rgb(246,8,247);"/>
            <path d="M2533.77,2240.73C2532.15,2228.23 2528.96,2219.48 2524.64,2213.87C2521.38,2209.65 2517.55,2207.54 2513.59,2207.36C2508.49,2207.13 2503.46,2209.82 2499.52,2213.87C2493.05,2220.54 2489.49,2231.18 2493.47,2241.86C2494.93,2245.77 2500.59,2250.09 2507.6,2255.15C2527.87,2269.77 2560.16,2286.37 2573.21,2296.12C2582.65,2303.18 2590.12,2315.68 2593.8,2330.43C2599.14,2351.77 2596.61,2377.6 2582.39,2396.55C2569.49,2413.75 2545.48,2422.49 2511.49,2424.11C2505.19,2424.4 2485.9,2422.5 2484.69,2422.24C2427.56,2409.94 2428.69,2355.86 2430.69,2345.16L2431.42,2342.45L2432.6,2340.29L2433.93,2338.88L2435.69,2337.76L2438.8,2337C2448.29,2336.62 2475.35,2335.77 2480.78,2336.92L2483.72,2337.99L2486.19,2340.06L2487.34,2341.95L2488,2344.57C2488.21,2347.27 2487.97,2351.01 2488.1,2355.14C2488.24,2359.47 2488.7,2364.5 2492.07,2368.48C2496.2,2373.38 2504.15,2376.19 2518.49,2376.12C2524.31,2376.09 2528.44,2371.78 2531,2366.44C2535.51,2357 2535.53,2343.67 2528,2336.14C2527.12,2335.26 2522.1,2327.81 2511.46,2323.09C2496.71,2316.55 2475.17,2305.45 2473.49,2304.32C2441.5,2282.85 2429.43,2257.83 2429.68,2234.77C2429.93,2211.48 2442.91,2189.67 2462.56,2174.5C2476.67,2163.6 2495.93,2159.68 2513.84,2159.95C2531.62,2160.23 2547.95,2164.62 2556.33,2169.45C2590.89,2189.36 2589.53,2212.45 2593.69,2238.12C2594.07,2240.41 2593.42,2242.75 2591.93,2244.53C2590.44,2246.31 2588.25,2247.36 2585.93,2247.4C2542.98,2248.1 2545.06,2248.37 2540.39,2247.59C2536.91,2247.01 2534.22,2244.22 2533.77,2240.73ZM2445.97,2352.83C2445.53,2366.41 2450.16,2398.43 2488.06,2406.6C2489.08,2406.82 2505.4,2408.38 2510.73,2408.12C2538.68,2406.8 2558.98,2401.09 2569.59,2386.95C2580.89,2371.88 2582.53,2351.28 2578.28,2334.31C2575.58,2323.51 2570.55,2314.1 2563.63,2308.94C2550.63,2299.22 2518.44,2282.69 2498.24,2268.13C2487.9,2260.67 2480.63,2253.22 2478.48,2247.45C2472.12,2230.39 2477.7,2213.39 2488.04,2202.73C2495.31,2195.24 2504.89,2190.96 2514.3,2191.38C2527.93,2191.99 2543.04,2202.56 2548.61,2232.17C2552.36,2232.12 2559.62,2231.87 2576.66,2231.55C2574.51,2213.83 2572.73,2197.37 2548.35,2183.32C2541.5,2179.38 2528.1,2176.18 2513.6,2175.95C2499.23,2175.73 2483.66,2178.42 2472.34,2187.16C2456.68,2199.25 2445.87,2216.38 2445.68,2234.94C2445.48,2253.75 2456.31,2273.52 2482.4,2291.04C2483.98,2292.1 2504.16,2302.35 2517.94,2308.46C2531.54,2314.49 2538.18,2323.7 2539.31,2324.83C2551.4,2336.92 2552.68,2358.19 2545.43,2373.35C2540.14,2384.41 2530.63,2392.06 2518.57,2392.12C2497.22,2392.22 2486,2386.1 2479.84,2378.8C2474.83,2372.88 2472.91,2365.83 2472.32,2359.14C2472.11,2356.86 2472.09,2354.64 2472.1,2352.59C2465.44,2352.62 2453.96,2352.69 2445.97,2352.83Z" style="fill:rgb(246,8,247);"/>
        </g>
        <path d="M2693.27,2164.84C2734.36,2165.53 2780.58,2164.88 2790.37,2166.23C2826.05,2171.16 2860.21,2217.27 2837.84,2290.35C2831.7,2310.42 2816.41,2321.4 2798.95,2327.11C2780.16,2333.27 2758.85,2333.01 2746.61,2332.87C2744.57,2372.98 2745.35,2411.69 2745.04,2413.9L2744.33,2416.23L2742.76,2418.46L2739.77,2420.35L2736.81,2420.92C2731.72,2421.29 2706.06,2420.48 2693.73,2421.3C2689.87,2421.55 2686.37,2419 2685.44,2415.24C2683.21,2406.27 2684.86,2221.55 2685.13,2172.79C2685.14,2170.66 2686.01,2168.61 2687.54,2167.12C2689.07,2165.62 2691.13,2164.8 2693.27,2164.84ZM2729.28,2404.89C2729.26,2390.86 2729.07,2357.37 2731.05,2324.42C2731.3,2320.32 2734.59,2317.08 2738.69,2316.9C2745.6,2316.6 2764.58,2318.23 2783.45,2314.59C2800.01,2311.4 2816.88,2304.18 2822.54,2285.67C2833.84,2248.76 2829.3,2219.71 2816.95,2201.5C2809.46,2190.44 2799.12,2183.59 2788.18,2182.08C2779.22,2180.84 2739.14,2181.43 2701.08,2180.95C2700.7,2232.97 2699.21,2372.76 2700.47,2405.01C2709.77,2404.78 2721.96,2404.83 2729.28,2404.89Z" style="fill:rgb(246,8,247);"/>
        <path d="M2706.79,2174.18C2715.76,2168.66 2722.53,2168.82 2727.16,2170.97C2728.85,2170.82 2730.61,2170.96 2732.44,2171.43C2733.27,2171.65 2734.06,2171.9 2734.8,2172.19C2738.58,2171.33 2742.61,2171.22 2746.75,2172.16C2752.09,2170.23 2757.87,2169.89 2763.63,2172.03C2768.15,2170.94 2773.09,2170.72 2778.19,2171.83C2779.9,2172.2 2781.37,2172.67 2782.64,2173.2C2786.8,2173.54 2790.69,2174.72 2793.93,2176.75C2796.26,2176.85 2798.55,2177.16 2800.69,2177.66C2810.24,2179.94 2816.33,2186.03 2816.53,2193.3C2821.3,2196.24 2824.95,2200.69 2826.42,2205.84C2829.21,2209.3 2831.13,2213.73 2831.48,2218.68C2831.58,2220.05 2831.57,2221.47 2831.41,2222.91C2831.83,2223.58 2832.22,2224.31 2832.6,2225.09C2834.18,2228.43 2834.65,2232.09 2834.25,2235.83L2834.86,2236.42L2836.92,2240.18C2839.53,2247.2 2837.87,2262.24 2827.39,2271.8C2827.18,2274.23 2826.58,2276.77 2825.6,2279.38C2825.35,2280.04 2825.07,2280.7 2824.77,2281.36L2826.11,2282.41L2827.74,2284.49L2828.7,2286.67L2829.1,2288.98L2828.49,2292.94C2827.92,2294.54 2826.71,2296.42 2824.88,2298.24C2823.6,2299.99 2821.8,2301.88 2819.51,2303.76C2813.37,2308.82 2803.22,2314.53 2794.09,2318.45C2787.55,2321.26 2781.47,2323.12 2777.54,2323.51C2775.83,2323.68 2774.36,2323.62 2773.17,2323.42L2769.38,2322.04L2768.52,2321.4C2764.75,2322.47 2761.3,2323.13 2758.44,2323.23C2757.94,2323.24 2754.05,2322.79 2750.93,2321.37C2748.05,2321.82 2745.51,2322.03 2743.47,2321.99C2743.14,2330.37 2741.27,2341.57 2739.32,2350.3C2738.49,2354.04 2737.63,2357.35 2736.86,2359.87C2737.09,2361.01 2737.29,2362.17 2737.47,2363.35C2739.93,2379.35 2738.27,2398.31 2732.14,2408.61L2729.87,2411.22L2726.74,2412.88L2723.06,2413.28L2718.89,2412.14C2717.78,2411.62 2716.53,2410.8 2715.23,2409.67C2715.2,2409.73 2715.18,2409.8 2715.16,2409.86C2714.11,2412.72 2711.53,2414.73 2708.51,2415.06C2706.51,2415.28 2704.55,2414.74 2702.97,2413.6C2701.45,2412.77 2694.76,2408.56 2694.25,2399.07C2693.61,2386.97 2693.7,2379.66 2694.49,2373.44C2694.06,2361.05 2693.4,2358.51 2691.92,2341.54C2691.54,2337.14 2694.8,2333.26 2699.2,2332.87C2699.8,2332.82 2700.39,2332.84 2700.97,2332.91C2700.99,2332.68 2701.02,2332.44 2701.05,2332.2L2698.83,2329.93L2696.99,2326.63C2696.54,2325.52 2696.19,2324.32 2695.98,2323.03C2695.41,2319.52 2695.81,2315.17 2698.02,2310.72L2697.99,2310.7L2695.91,2308.3L2694.84,2305.5C2694.63,2304.61 2694.41,2303.11 2694.32,2300.87C2694.06,2295.06 2694.49,2282.17 2696.99,2257.81C2696.39,2244.39 2696.13,2234.32 2696.08,2226.55L2693.36,2225.47L2691.58,2224.08L2690.23,2222.53L2688.81,2220.07C2688.48,2219.33 2688.16,2218.47 2687.9,2217.5C2686.58,2212.69 2686.34,2203.4 2691.07,2188.09C2693.28,2180.95 2696.97,2177.34 2700.38,2175.62L2702.8,2174.67L2705.32,2174.19L2706.79,2174.18ZM2760.34,2297.45C2763.76,2296.05 2766.43,2295.1 2768.81,2294.46C2772.48,2291.07 2778.35,2287.37 2787.18,2284.29C2785.32,2276.93 2788.08,2262.04 2798.53,2251.98L2796.2,2249.86L2794.4,2246.66C2793.51,2244.32 2793.39,2241.25 2794.1,2237.92C2793.06,2235.58 2792.45,2232.87 2792.4,2229.95C2792.39,2229.25 2792.41,2228.54 2792.47,2227.82L2791.59,2223.9C2791.56,2223.59 2791.55,2223.26 2791.54,2222.94L2789.66,2221.93L2787.15,2219.69L2785.29,2217.09C2784.79,2216.21 2784.37,2215.27 2784.04,2214.3C2783.53,2212.8 2783.24,2211.21 2783.17,2209.6C2780.88,2210.04 2778.69,2210.07 2776.8,2209.74L2773.48,2208.7L2770.25,2206.5L2769.01,2204.91C2766.79,2205.42 2764.68,2205.65 2762.84,2205.53L2760.01,2205.07C2759.09,2205.37 2758.15,2205.62 2757.18,2205.81C2753.89,2206.49 2751.3,2206.44 2749.33,2206.06L2746.61,2205.22L2745.91,2204.8C2745.07,2205.47 2744.25,2206.07 2743.49,2206.57C2740.04,2208.8 2737.31,2209.82 2735.37,2210.18L2732.08,2210.21C2730.63,2217.64 2729.26,2224.68 2728.42,2233.78C2730.02,2235.18 2731.06,2237.21 2731.15,2239.51C2731.15,2239.53 2731.15,2239.56 2731.15,2239.59C2731.73,2255.19 2731.74,2262.09 2731.48,2269.94C2732.81,2271.97 2733.21,2274.57 2732.34,2277.02C2731.74,2278.69 2731.32,2279.91 2731.02,2281.05C2730.86,2284.65 2730.68,2288.86 2730.5,2294.09C2734.08,2292.55 2739.86,2291.44 2744.25,2291.64C2745.76,2291.71 2747.14,2291.92 2748.31,2292.24L2751.47,2293.57L2753.93,2295.86L2754.82,2297.55L2754.83,2297.56C2756.6,2297.53 2758.45,2297.49 2760.34,2297.45Z" style="fill:rgb(246,8,247);"/>
        <path d="M2692.68,2330.31C2693.3,2325.94 2697.36,2322.9 2701.73,2323.53C2706.1,2324.15 2709.14,2328.2 2708.51,2332.58C2708.28,2334.24 2708.08,2334 2707.81,2335.87C2707.19,2340.24 2703.13,2343.28 2698.76,2342.65C2694.39,2342.03 2691.35,2337.97 2691.97,2333.6C2692.24,2331.74 2692.44,2331.98 2692.68,2330.31Z" style="fill:rgb(246,8,247);"/>
        <g transform="matrix(1,0,0,1,253.368,0)">
            <path d="M2939.55,2174.43C2941.58,2174.65 3026.1,2174.33 3065.62,2173.31C3066.5,2207.1 3066.24,2196.56 3066.36,2210.38C3021.81,2211.72 3011.12,2210.07 2983.54,2210.43C2984.25,2237.96 2984.08,2257.41 2984.2,2273.76C2984.2,2274.52 3028.74,2272.56 3057.31,2272.44C3057.43,2304.63 3057.09,2282.58 3057.31,2307.82C3057.31,2307.82 3040.68,2308.03 2982.47,2309.02C2981.98,2330.29 2982.07,2352.86 2981.82,2377.87C2981.8,2380.55 3008.92,2379.09 3068.05,2379.04C3069.16,2409.13 3067.49,2412.26 3067.11,2412.27C3038.8,2412.95 2955.81,2412.27 2940.25,2411.99C2937.58,2299.17 2940.87,2225.01 2939.55,2174.43Z" style="fill:rgb(246,8,247);"/>
            <path d="M2992.16,2265.89C3006.12,2265.64 3036.1,2264.53 3057.27,2264.44C3059.39,2264.43 3061.43,2265.26 3062.94,2266.76C3064.45,2268.25 3065.3,2270.28 3065.31,2272.4C3065.43,2304.56 3065.09,2282.54 3065.31,2307.75C3065.35,2312.16 3061.81,2315.77 3057.41,2315.82C3057.41,2315.82 3042.27,2316.01 2990.32,2316.89C2990.03,2333.94 2990.04,2351.89 2989.88,2371.29C2990.97,2371.35 2992.15,2371.4 2993.34,2371.42C3006.37,2371.66 3030.87,2371.07 3068.05,2371.04C3072.35,2371.04 3075.89,2374.44 3076.05,2378.74C3077.01,2404.9 3075.69,2412.3 3075.06,2414.22L3073.91,2416.6L3072.57,2418.16L3070.08,2419.71L3067.3,2420.27C3038.92,2420.95 2955.71,2420.27 2940.11,2419.99C2935.82,2419.92 2932.35,2416.47 2932.25,2412.18C2929.58,2299.37 2932.87,2225.22 2931.56,2174.64C2931.5,2172.33 2932.44,2170.1 2934.14,2168.54C2935.85,2166.97 2938.14,2166.22 2940.44,2166.48C2942.44,2166.7 3026.24,2166.32 3065.41,2165.31C3069.83,2165.2 3073.5,2168.68 3073.62,2173.1C3074.5,2207.02 3074.24,2196.44 3074.36,2210.31C3074.39,2214.66 3070.95,2218.24 3066.6,2218.37C3026.59,2219.58 3013.85,2218.37 2991.73,2218.38C2992.13,2237.74 2992.12,2252.89 2992.16,2265.89ZM3060.13,2404.4C3060.28,2400.71 3060.42,2394.92 3060.27,2387.05C3027.28,2387.15 3005.2,2387.64 2993.05,2387.42C2986.11,2387.3 2981.82,2386.74 2979.99,2386.1L2977.48,2384.83L2975.22,2382.5L2974.2,2380.34L2973.82,2377.79C2974.07,2352.74 2973.98,2330.14 2974.47,2308.84C2974.57,2304.54 2978.04,2301.1 2982.34,2301.02C3019.19,2300.39 3039.39,2300.08 3049.25,2299.93C3049.18,2289.04 3049.37,2297.73 3049.33,2280.51C3024.15,2280.85 2991.99,2282.12 2985.23,2281.91L2982.39,2281.59L2979.27,2280.08L2977.03,2277.32L2976.43,2275.69L2976.2,2273.82C2976.08,2257.51 2976.25,2238.1 2975.54,2210.64C2975.49,2208.5 2976.29,2206.43 2977.77,2204.88C2979.26,2203.34 2981.3,2202.46 2983.43,2202.43C3009.28,2202.09 3020.27,2203.53 3058.31,2202.59C3058.29,2199.41 3058.24,2197.32 3057.83,2181.49C3024.04,2182.19 2969.25,2182.48 2947.72,2182.45C2948.52,2231.55 2945.85,2301.46 2948.07,2404.1C2971.89,2404.38 3031.28,2404.8 3060.13,2404.4Z" style="fill:rgb(246,8,247);"/>
        </g>
        <path d="M2939.55,2174.43C2941.58,2174.65 3026.1,2174.33 3065.62,2173.31C3066.5,2207.1 3066.24,2196.56 3066.36,2210.38C3021.81,2211.72 3011.12,2210.07 2983.54,2210.43C2984.25,2237.96 2984.08,2257.41 2984.2,2273.76C2984.2,2274.52 3028.74,2272.56 3057.31,2272.44C3057.43,2304.63 3057.09,2282.58 3057.31,2307.82C3057.31,2307.82 3040.68,2308.03 2982.47,2309.02C2981.98,2330.29 2982.07,2352.86 2981.82,2377.87C2981.8,2380.55 3008.92,2379.09 3068.05,2379.04C3069.16,2409.13 3067.49,2412.26 3067.11,2412.27C3038.8,2412.95 2955.81,2412.27 2940.25,2411.99C2937.58,2299.17 2940.87,2225.01 2939.55,2174.43Z" style="fill:rgb(246,8,247);"/>
        <path d="M2992.16,2265.89C3006.12,2265.64 3036.1,2264.53 3057.27,2264.44C3059.39,2264.43 3061.43,2265.26 3062.94,2266.76C3064.45,2268.25 3065.3,2270.28 3065.31,2272.4C3065.43,2304.56 3065.09,2282.54 3065.31,2307.75C3065.35,2312.16 3061.81,2315.77 3057.41,2315.82C3057.41,2315.82 3042.27,2316.01 2990.32,2316.89C2990.03,2333.94 2990.04,2351.89 2989.88,2371.29C2990.97,2371.35 2992.15,2371.4 2993.34,2371.42C3006.37,2371.66 3030.87,2371.07 3068.05,2371.04C3072.35,2371.04 3075.89,2374.44 3076.05,2378.74C3077.01,2404.9 3075.69,2412.3 3075.06,2414.22L3073.91,2416.6L3072.57,2418.16L3070.08,2419.71L3067.3,2420.27C3038.92,2420.95 2955.71,2420.27 2940.11,2419.99C2935.82,2419.92 2932.35,2416.47 2932.25,2412.18C2929.58,2299.37 2932.87,2225.22 2931.56,2174.64C2931.5,2172.33 2932.44,2170.1 2934.14,2168.54C2935.85,2166.97 2938.14,2166.22 2940.44,2166.48C2942.44,2166.7 3026.24,2166.32 3065.41,2165.31C3069.83,2165.2 3073.5,2168.68 3073.62,2173.1C3074.5,2207.02 3074.24,2196.44 3074.36,2210.31C3074.39,2214.66 3070.95,2218.24 3066.6,2218.37C3026.59,2219.58 3013.85,2218.37 2991.73,2218.38C2992.13,2237.74 2992.12,2252.89 2992.16,2265.89ZM3060.13,2404.4C3060.28,2400.71 3060.42,2394.92 3060.27,2387.05C3027.28,2387.15 3005.2,2387.64 2993.05,2387.42C2986.11,2387.3 2981.82,2386.74 2979.99,2386.1L2977.48,2384.83L2975.22,2382.5L2974.2,2380.34L2973.82,2377.79C2974.07,2352.74 2973.98,2330.14 2974.47,2308.84C2974.57,2304.54 2978.04,2301.1 2982.34,2301.02C3019.19,2300.39 3039.39,2300.08 3049.25,2299.93C3049.18,2289.04 3049.37,2297.73 3049.33,2280.51C3024.15,2280.85 2991.99,2282.12 2985.23,2281.91L2982.39,2281.59L2979.27,2280.08L2977.03,2277.32L2976.43,2275.69L2976.2,2273.82C2976.08,2257.51 2976.25,2238.1 2975.54,2210.64C2975.49,2208.5 2976.29,2206.43 2977.77,2204.88C2979.26,2203.34 2981.3,2202.46 2983.43,2202.43C3009.28,2202.09 3020.27,2203.53 3058.31,2202.59C3058.29,2199.41 3058.24,2197.32 3057.83,2181.49C3024.04,2182.19 2969.25,2182.48 2947.72,2182.45C2948.52,2231.55 2945.85,2301.46 2948.07,2404.1C2971.89,2404.38 3031.28,2404.8 3060.13,2404.4Z" style="fill:rgb(246,8,247);"/>
        <g transform="matrix(1,0,0,1,763.426,-0.036777)">
            <path d="M2939.55,2174.43C2941.58,2174.65 3026.1,2174.33 3065.62,2173.31C3066.5,2207.1 3066.24,2196.56 3066.36,2210.38C3021.81,2211.72 3011.12,2210.07 2983.54,2210.43C2984.25,2237.96 2984.08,2257.41 2984.2,2273.76C2984.2,2274.52 3028.74,2272.56 3057.31,2272.44C3057.43,2304.63 3057.09,2282.58 3057.31,2307.82C3057.31,2307.82 3040.68,2308.03 2982.47,2309.02C2981.98,2330.29 2982.07,2352.86 2981.82,2377.87C2981.8,2380.55 3008.92,2379.09 3068.05,2379.04C3069.16,2409.13 3067.49,2412.26 3067.11,2412.27C3038.8,2412.95 2955.81,2412.27 2940.25,2411.99C2937.58,2299.17 2940.87,2225.01 2939.55,2174.43Z" style="fill:rgb(246,8,247);"/>
            <path d="M2992.16,2265.89C3006.12,2265.64 3036.1,2264.53 3057.27,2264.44C3059.39,2264.43 3061.43,2265.26 3062.94,2266.76C3064.45,2268.25 3065.3,2270.28 3065.31,2272.4C3065.43,2304.56 3065.09,2282.54 3065.31,2307.75C3065.35,2312.16 3061.81,2315.77 3057.41,2315.82C3057.41,2315.82 3042.27,2316.01 2990.32,2316.89C2990.03,2333.94 2990.04,2351.89 2989.88,2371.29C2990.97,2371.35 2992.15,2371.4 2993.34,2371.42C3006.37,2371.66 3030.87,2371.07 3068.05,2371.04C3072.35,2371.04 3075.89,2374.44 3076.05,2378.74C3077.01,2404.9 3075.69,2412.3 3075.06,2414.22L3073.91,2416.6L3072.57,2418.16L3070.08,2419.71L3067.3,2420.27C3038.92,2420.95 2955.71,2420.27 2940.11,2419.99C2935.82,2419.92 2932.35,2416.47 2932.25,2412.18C2929.58,2299.37 2932.87,2225.22 2931.56,2174.64C2931.5,2172.33 2932.44,2170.1 2934.14,2168.54C2935.85,2166.97 2938.14,2166.22 2940.44,2166.48C2942.44,2166.7 3026.24,2166.32 3065.41,2165.31C3069.83,2165.2 3073.5,2168.68 3073.62,2173.1C3074.5,2207.02 3074.24,2196.44 3074.36,2210.31C3074.39,2214.66 3070.95,2218.24 3066.6,2218.37C3026.59,2219.58 3013.85,2218.37 2991.73,2218.38C2992.13,2237.74 2992.12,2252.89 2992.16,2265.89ZM3060.13,2404.4C3060.28,2400.71 3060.42,2394.92 3060.27,2387.05C3027.28,2387.15 3005.2,2387.64 2993.05,2387.42C2986.11,2387.3 2981.82,2386.74 2979.99,2386.1L2977.48,2384.83L2975.22,2382.5L2974.2,2380.34L2973.82,2377.79C2974.07,2352.74 2973.98,2330.14 2974.47,2308.84C2974.57,2304.54 2978.04,2301.1 2982.34,2301.02C3019.19,2300.39 3039.39,2300.08 3049.25,2299.93C3049.18,2289.04 3049.37,2297.73 3049.33,2280.51C3024.15,2280.85 2991.99,2282.12 2985.23,2281.91L2982.39,2281.59L2979.27,2280.08L2977.03,2277.32L2976.43,2275.69L2976.2,2273.82C2976.08,2257.51 2976.25,2238.1 2975.54,2210.64C2975.49,2208.5 2976.29,2206.43 2977.77,2204.88C2979.26,2203.34 2981.3,2202.46 2983.43,2202.43C3009.28,2202.09 3020.27,2203.53 3058.31,2202.59C3058.29,2199.41 3058.24,2197.32 3057.83,2181.49C3024.04,2182.19 2969.25,2182.48 2947.72,2182.45C2948.52,2231.55 2945.85,2301.46 2948.07,2404.1C2971.89,2404.38 3031.28,2404.8 3060.13,2404.4Z" style="fill:rgb(246,8,247);"/>
        </g>
        <path d="M3440.69,2172.93C3441.9,2311.91 3440.55,2359.04 3440.41,2412.25C3440.4,2412.77 3459.7,2413.01 3484.51,2413.5C3486.15,2413.53 3483.98,2342.54 3485.68,2340.35C3489.94,2334.86 3497.92,2321.18 3510.97,2306.27C3543.32,2386.64 3547.94,2405.39 3550.51,2413.35C3567.92,2413.41 3583.44,2415.37 3601.77,2415.37C3603.45,2415.37 3544.25,2274.97 3544.25,2274.97C3544.25,2274.97 3598.82,2171.96 3596.48,2172.02C3562.04,2173.03 3545.5,2172.74 3545.25,2173.41C3542.19,2181.57 3517.41,2234.53 3478.79,2318.19C3478.79,2310.62 3488.55,2172.37 3483.66,2172.43C3440.39,2172.94 3445.98,2172.86 3440.69,2172.93Z" style="fill:rgb(246,8,247);"/>
        <path d="M3493.26,2343.56C3492.45,2355.19 3493.64,2401.9 3492.88,2412.12L3492.14,2416.13L3491.09,2418.11L3489.85,2419.49L3487.05,2421.09L3484.35,2421.5C3461.59,2421.05 3443.38,2420.76 3439.97,2420.33L3437.04,2419.53L3435.52,2418.6L3434,2417.05L3432.73,2414.52L3432.41,2412.23C3432.55,2359.04 3433.9,2311.92 3432.69,2173C3432.65,2168.6 3436.18,2164.99 3440.59,2164.93C3445.88,2164.86 3440.28,2164.94 3483.56,2164.43L3485.42,2164.62L3487.11,2165.18L3488.68,2166.12L3490.17,2167.57L3491.25,2169.29L3492.14,2171.89C3492.69,2174.28 3493.03,2179.56 3493.03,2186.83C3493.03,2207.53 3490.93,2246.49 3489.16,2276.68C3517.46,2215.51 3535.21,2177.41 3537.76,2170.6L3538.95,2168.48L3540.69,2166.83L3542.73,2165.78L3544.68,2165.32C3547.91,2164.86 3564.7,2164.94 3596.25,2164.03L3598.19,2164.21L3600.31,2164.99L3602.13,2166.33L3603.35,2167.86L3604.2,2169.77L3604.54,2171.67L3604.33,2174.11C3604.18,2174.82 3603.74,2176.17 3602.94,2178.04C3596.62,2192.77 3561.44,2259.56 3553.1,2275.36C3561.23,2294.68 3600.56,2388.25 3608.08,2408.67C3609.75,2413.21 3609.78,2416.16 3609.69,2416.66L3608.94,2418.95L3607.27,2421.19L3604.7,2422.81L3601.77,2423.37C3583.43,2423.37 3567.9,2421.41 3550.49,2421.35C3547.02,2421.34 3543.96,2419.11 3542.9,2415.81C3540.48,2408.32 3536.24,2391.23 3508.58,2321.81C3501.5,2331.03 3496.53,2338.97 3493.26,2343.56ZM3448.43,2404.64C3454.89,2404.82 3465.51,2405.09 3477.12,2405.35C3477.37,2391.21 3476.75,2360.96 3477.1,2347.21C3477.2,2343.28 3477.43,2340.45 3477.68,2339.23L3478.31,2337.2L3479.36,2335.44C3483.67,2329.9 3491.76,2316.08 3504.95,2301C3506.78,2298.91 3509.57,2297.91 3512.31,2298.38C3515.05,2298.85 3517.36,2300.7 3518.39,2303.28C3545.23,2369.95 3553.07,2394.43 3556.45,2405.44C3567.88,2405.74 3578.71,2406.69 3590.35,2407.14C3577.38,2374.13 3536.88,2278.08 3536.88,2278.08C3535.95,2275.87 3536.06,2273.35 3537.18,2271.23C3537.18,2271.23 3571.17,2207.1 3584.2,2180.37C3568.09,2180.79 3556.34,2181.01 3550.7,2181.1C3543.49,2197.63 3520.15,2247.66 3486.06,2321.54C3484.48,2324.95 3480.75,2326.81 3477.08,2326C3473.41,2325.2 3470.79,2321.94 3470.79,2318.19C3470.79,2311.71 3478.02,2209.11 3476.95,2180.51C3461.01,2180.69 3453.08,2180.79 3448.76,2180.84C3449.79,2307.22 3448.67,2355.33 3448.43,2404.64Z" style="fill:rgb(246,8,247);"/>
        <path d="M3990.26,2325.35C3990.12,2340.18 3990.43,2376.84 3988.92,2412.85C3988.74,2417.15 3985.2,2420.54 3980.9,2420.52C3958.96,2420.43 3941.73,2421.08 3938.55,2420.73L3935.74,2420.01L3933.6,2418.65L3932.23,2417.07L3931.39,2415.42L3930.93,2411.89C3932.37,2396.24 3930.41,2189.56 3930.76,2173.85C3930.86,2169.64 3934.2,2166.22 3938.4,2166.03C3961.11,2165.02 3984.96,2161.76 4009.65,2162.51C4036.47,2163.32 4062.25,2164.91 4081.4,2185.62C4081.62,2185.85 4093.31,2198.74 4097.13,2217.05C4103.63,2248.2 4100.04,2285.03 4066.7,2314.47C4082.68,2356.21 4087.23,2367.38 4102.55,2410C4103.45,2412.49 4103.06,2415.25 4101.51,2417.39C4099.96,2419.53 4097.46,2420.77 4094.82,2420.7C4078.68,2420.29 4052.9,2421.52 4047.65,2421.17L4044.67,2420.62L4042.14,2419.19L4040.77,2417.73L4039.88,2416.15C4033.03,2400.1 4026.25,2374.51 4011.46,2325.33C4003.92,2325.23 3996.38,2325.02 3990.26,2325.35ZM3947.18,2404.71C3953.26,2404.63 3962.75,2404.52 3973.23,2404.51C3974.61,2365.14 3974.02,2326.91 3974.38,2319.18L3974.7,2316.43L3975.85,2313.75L3977.96,2311.58L3981.16,2310.26C3989.81,2308.74 4004.13,2309.38 4017.42,2309.38C4020.95,2309.38 4024.06,2311.69 4025.08,2315.06C4039.34,2362.26 4046.28,2388.43 4052.67,2405.1C4059.08,2404.93 4072.17,2404.63 4083.6,2404.61C4070.75,2369.12 4065.79,2356.92 4049.72,2314.86C4048.48,2311.62 4049.48,2307.94 4052.2,2305.76C4083.84,2280.43 4087.19,2247.74 4081.47,2220.32C4078.58,2206.46 4069.82,2196.66 4069.66,2196.49C4053.62,2179.15 4031.62,2179.18 4009.16,2178.5C3987.63,2177.85 3966.74,2180.34 3946.72,2181.6C3946.7,2218.35 3947.91,2365.58 3947.18,2404.71Z" style="fill:rgb(246,8,247);"/>
        <g transform="matrix(1,0,0,1,0.513609,-0.759763)">
            <path d="M2736.03,2198.64C2744.8,2198.62 2764.9,2196.26 2778.16,2200.09C2786.27,2202.44 2792.18,2206.98 2794.66,2213.73C2813.41,2264.76 2791.37,2289.8 2788.2,2292.12C2780.33,2297.86 2769.95,2300.57 2760.2,2301.53C2748.05,2302.72 2737.08,2301.3 2734.71,2300.99L2734.48,2300.96C2734.48,2300.96 2735.06,2301.01 2735.16,2301.01L2732.78,2300.6L2730.26,2299.22L2728.81,2297.69L2727.75,2295.69L2727.3,2293.73C2727.25,2293.31 2727.2,2292.35 2727.18,2290.93C2726.98,2278.19 2728.19,2214.16 2728.05,2206.79C2728.01,2204.65 2728.83,2202.58 2730.33,2201.05C2731.83,2199.51 2733.89,2198.65 2736.03,2198.64ZM2743.15,2285.79C2747.34,2286.06 2752.84,2286.18 2758.64,2285.61C2765.48,2284.93 2772.87,2283.36 2778.46,2279.41C2778.77,2279.01 2780.39,2276.89 2781.47,2274.73C2785.99,2265.7 2790.02,2247.49 2779.64,2219.25C2779.22,2218.1 2778.23,2217.39 2777.09,2216.78C2774.87,2215.59 2772.07,2214.93 2769.05,2214.49C2760.91,2213.29 2751.36,2213.84 2744.02,2214.28C2743.85,2231.41 2743.18,2269.88 2743.15,2285.79ZM2737.34,2285.25C2736.69,2285.09 2736.05,2285.02 2735.43,2285.01C2735.52,2285.01 2736.2,2285.11 2737.34,2285.25Z" style="fill:rgb(246,8,247);"/>
        </g>
        <g transform="matrix(1.09565,0,0,0.944624,984.677,120.458)">
            <path d="M2736.03,2198.17C2744.7,2198.15 2764.59,2195.76 2777.7,2199.56C2785.67,2201.86 2791.44,2206.55 2793.87,2213.17C2812.93,2265.05 2790.6,2290.47 2787.37,2292.83C2779.69,2298.43 2769.55,2301.07 2760.03,2302.01C2748.07,2303.18 2737.26,2301.78 2734.92,2301.48L2734.67,2301.44C2734.67,2301.44 2735.11,2301.47 2735.19,2301.48L2732.86,2300.99L2731.11,2299.95L2729.69,2298.45L2728.54,2296.25L2728.01,2293.94C2727.96,2293.48 2727.9,2292.47 2727.87,2290.96C2727.68,2278.22 2728.88,2214.2 2728.75,2206.82C2728.71,2204.55 2729.46,2202.35 2730.83,2200.72C2732.2,2199.1 2734.07,2198.18 2736.03,2198.17ZM2742.45,2285.27C2746.76,2285.58 2752.61,2285.74 2758.8,2285.13C2765.91,2284.43 2773.55,2282.79 2779.34,2278.67C2779.61,2278.33 2781.23,2276.21 2782.31,2274.06C2786.73,2265.23 2790.58,2247.43 2780.43,2219.81C2780.01,2218.65 2778.96,2218.04 2777.8,2217.42C2775.45,2216.16 2772.49,2215.44 2769.29,2214.97C2760.8,2213.73 2750.81,2214.35 2743.31,2214.8C2743.14,2232.01 2742.5,2269.24 2742.45,2285.27ZM2736.88,2284.73C2736.39,2284.61 2735.89,2284.55 2735.4,2284.54C2735.48,2284.54 2736,2284.62 2736.88,2284.73Z" style="fill:rgb(246,8,247);"/>
        </g>
    </g>
    <path d="M3943.09,2307.65C3943.09,2304.5 3943.09,2301.26 3943.09,2297.91C3943.09,2297.58 3943.11,2297.25 3943.14,2296.93C3941.22,2256.68 3942.1,2250.48 3945.89,2220.55C3945.76,2217.96 3945.62,2215.12 3945.46,2211.98C3945.4,2210.75 3945.61,2209.57 3946.06,2208.5C3943.83,2205.64 3942.24,2202.07 3941.47,2198.34L3941.28,2198.07L3940.22,2194.36C3940.08,2193.28 3940.04,2192.08 3940.16,2190.73L3940.66,2188.12L3941.64,2185.71L3943,2183.63L3943.43,2183.16C3944.83,2180.64 3946.77,2178.6 3949.09,2177.3C3952.54,2175.38 3957.12,2174.61 3962.93,2176.93C3964.15,2177.42 3965.19,2177.96 3966.08,2178.52C3966.28,2178.49 3966.49,2178.46 3966.69,2178.44C3968.35,2177.99 3970.15,2177.76 3972.15,2177.71C3975.57,2177.62 3979.97,2178.16 3986.05,2177.61C3987.96,2176.41 3989.89,2175.55 3992.02,2175.04C3995.43,2174.23 3999.55,2174.27 4005.51,2176.09C4010.13,2174.99 4016.02,2174.5 4023.41,2175.21C4025.83,2175.45 4027.73,2176.04 4029.17,2176.74L4030.7,2177.66C4035.72,2176.82 4041.34,2177.37 4046.92,2180.16C4047.38,2180.39 4047.81,2180.62 4048.24,2180.86C4051.74,2181.58 4055.41,2182.81 4059.16,2184.68L4059.45,2184.64L4062.6,2185.06L4065.87,2186.59L4067.74,2188.14L4068.42,2188.95C4071.74,2191.01 4074.48,2193.9 4075.89,2197.5C4075.96,2197.68 4076.03,2197.87 4076.09,2198.06C4077.85,2200.26 4078.78,2202.07 4079.19,2203.42L4079.51,2206.35C4080.85,2207.61 4081.76,2209.33 4081.98,2211.27L4082.87,2219.09C4086.15,2228.88 4087.69,2233.88 4087.29,2239.88C4087.15,2242.01 4086.76,2244.28 4086.07,2246.95L4086.18,2247.91C4086.43,2250.03 4085.81,2252.06 4084.62,2253.64L4085.12,2253.97L4086.42,2255.35L4087.83,2258.39L4087.93,2261.54L4087.27,2263.77L4085.9,2266.1C4084.69,2267.81 4081.79,2271.14 4076.57,2276.53C4076.99,2280.68 4076.99,2286.82 4075.43,2292.32C4073.72,2298.31 4070.23,2303.41 4064.86,2305.94C4061.71,2307.43 4057.79,2308.15 4052.92,2307.29L4052.4,2307.99L4051.54,2308.54C4053.33,2309.83 4054.59,2311.84 4054.85,2314.2C4055.16,2317.12 4055.39,2319.85 4055.55,2322.4C4061.41,2335.38 4064.66,2342.78 4066.22,2346.99C4068.99,2352.98 4072.64,2360.91 4077.14,2370.08C4078.11,2372.07 4078.19,2374.26 4077.52,2376.21C4080.58,2380.83 4083.71,2385.91 4085.14,2389.39C4085.65,2390.64 4086,2391.77 4086.2,2392.72L4086.45,2395.84L4085.81,2398.78L4084.59,2400.89C4084.53,2401.5 4084.45,2402.1 4084.35,2402.72C4084.14,2404 4083.87,2405.03 4083.6,2405.84L4082.51,2408.21L4081.05,2410.06L4079.42,2411.33L4078.48,2411.71L4078.44,2411.74L4076.14,2412.86L4072.84,2413.63C4071.86,2413.74 4070.83,2413.77 4069.77,2413.7C4066.92,2413.51 4063.8,2412.59 4061.03,2411.14L4059.64,2412.01L4056.73,2412.78L4053.95,2412.53L4050.65,2410.91L4048.37,2408.51C4045.34,2404.37 4038.54,2386.93 4026.7,2338.24C4026.41,2337.04 4026.4,2335.83 4026.64,2334.69C4024.61,2334.37 4023.06,2333.86 4021.9,2333.29L4019.7,2331.88L4017.68,2329.64L4016.4,2326.88L4015.97,2324.27C4015.91,2322.79 4016.14,2320.93 4016.85,2318.64C4017.32,2317.08 4018.1,2315.12 4019.06,2312.63C4018.36,2312.42 4017.7,2312.1 4017.08,2311.7C4016.48,2311.97 4015.85,2312.17 4015.18,2312.29L3995.49,2315.8C3993.29,2316.2 3991.11,2315.64 3989.4,2314.41C3987.78,2314.63 3986.23,2314.81 3984.8,2314.95C3984.77,2315.12 3984.73,2315.29 3984.69,2315.46L3983.66,2318.42L3981.95,2321.17L3979.49,2323.53L3977.74,2324.47C3978.69,2337.47 3979.02,2347.77 3978.37,2356.81C3979.31,2364.1 3979.2,2369.21 3978.52,2373.37C3977.69,2378.47 3975.93,2382.17 3973.92,2386.8L3974.33,2387.42L3975.06,2389.72L3975.1,2390.03C3976.54,2390.49 3977.61,2391.01 3978.36,2391.49L3981.03,2393.91L3982.49,2396.71L3982.89,2400.1L3982.43,2402.38L3981.62,2404.16L3980.47,2405.76L3978.77,2407.36C3977.76,2408.16 3976.38,2409 3974.71,2409.76C3971.08,2411.42 3965.72,2412.79 3960.57,2413.37C3959.19,2414.25 3957.98,2414.94 3957.09,2415.3C3956.09,2415.71 3955.16,2415.99 3954.32,2416.18L3951.22,2416.48L3948.94,2416.19L3946.57,2415.33L3944.72,2414.12L3943.18,2412.52L3942.07,2410.7L3941.39,2408.83L3941.04,2406.33L3941.07,2406.04L3940.18,2402.88L3940.31,2400.27L3941.21,2397.86C3941.66,2397.04 3943.18,2395.16 3945.29,2392.97C3944.82,2388.95 3944.42,2383.12 3944.09,2374.97C3938.95,2357.72 3931.48,2330.83 3931.45,2320.04C3931.45,2318.19 3931.62,2316.63 3931.91,2315.42L3933.57,2311.57L3935.78,2309.27L3939.16,2307.7L3941.3,2307.46L3943.09,2307.65ZM4013.6,2200.6L4012.81,2200.59L4009.89,2199.94L4008.16,2199.11C4003.42,2201.87 3996.16,2203.98 3987.41,2202.95C3984.89,2202.65 3982.75,2202.33 3980.94,2202C3981.01,2202.82 3980.95,2203.66 3980.76,2204.49C3979.01,2212.1 3977.61,2218.94 3976.55,2225.68C3976.62,2234.63 3975.77,2244.3 3973.99,2255.78C3974.29,2257.28 3974.77,2259.71 3975.3,2262.74C3979.41,2268 3980.03,2272.22 3979.38,2278.67C3979.14,2281.01 3978.62,2283.79 3978.01,2287.37C3978.01,2287.48 3978.01,2287.59 3978.02,2287.7L4007.29,2290.19C4013.04,2289.07 4017.56,2288.22 4019.24,2287.97L4022.72,2287.99L4024.31,2288.57C4027.94,2285.4 4032.56,2281.97 4037.49,2278.99L4044.44,2265.53L4043.97,2265.05L4042.35,2262.24C4040.96,2258.9 4040.68,2252.69 4041.69,2245.51C4042.74,2238.01 4044.89,2229.17 4046.65,2222.63C4041.98,2219.57 4039.49,2214.77 4038.85,2209.84C4034.17,2211.01 4028.6,2210.99 4023.34,2208.99C4017.93,2206.92 4015.03,2203.73 4013.6,2200.6Z" style="fill:rgb(246,8,247);"/>
</svg>
